<?xml version="1.0" encoding="UTF-8"?>
<svg width="62px" height="62px" viewBox="0 0 62 62" version="1.1" xmlns="http://www.w3.org/2000/svg" xmlns:xlink="http://www.w3.org/1999/xlink">
    <title>diamond</title>
    <g id="Home" stroke="none" stroke-width="1" fill="none" fill-rule="evenodd">
        <g transform="translate(-484.000000, -999.000000)" fill-rule="nonzero" id="Group-4">
            <g transform="translate(-41.000000, 724.000000)">
                <g id="Group" transform="translate(421.000000, 275.000000)">
                    <g id="diamond" transform="translate(104.000000, 0.000000)">
                        <path d="M61.8016526,25.8146696 L51.8731727,10.5513239 C51.6492702,10.2072958 51.2687936,10 50.8607075,10 L11.1863854,10 C10.779147,10 10.3992758,10.2063192 10.1752522,10.5492485 L0.230787923,25.7670575 C0.18344025,25.8328599 0.142389455,25.9039118 0.108119912,25.979847 C-0.0881731231,26.4161693 -0.0130949726,26.9278165 0.300053571,27.2882036 L5.34058263,33.0904114 C5.78124293,33.5976635 6.54607132,33.648694 7.04909493,33.2045584 C7.55211854,32.7603007 7.60273574,31.9891065 7.16219653,31.4820985 L3.88091807,27.7047485 L20.1681541,27.7047485 L28.3525201,55.8748844 L19.1039818,45.2286931 C18.6634426,44.7214409 17.8983721,44.6704105 17.3954695,45.1145461 C16.8924459,45.5588038 16.8418287,46.329998 17.2823679,46.837006 L30.0928801,61.583455 C30.3227161,61.8481296 30.6548764,62 31.0037476,62 C31.3527399,62 31.684658,61.8481296 31.914494,61.5833329 L45.5532877,45.8796362 C45.993948,45.372384 45.9432097,44.6011898 45.4399439,44.1571763 C44.9366781,43.7129187 44.1717286,43.7640712 43.7314316,44.2714454 L33.6552173,55.8732973 L41.83922,27.7046265 L58.1196748,27.7046265 L50.5896996,36.3749149 C50.1490393,36.8821671 50.1997776,37.6533613 50.7030434,38.0973748 C50.9327583,38.3002756 51.2170865,38.3997727 51.5002038,38.3997727 C51.8370867,38.3997727 52.1722743,38.2587676 52.4115557,37.9831057 L61.700176,27.2880815 C62.0583714,26.8756873 62.0999066,26.2730888 61.8016526,25.8146696 Z M3.45999605,25.2633457 L11.1839635,13.4432106 L18.8728138,25.2633457 L3.45999605,25.2633457 Z M13.4283158,12.4415249 L28.761575,12.4415249 L21.095006,24.227477 L13.4283158,12.4415249 Z M31.0036265,13.446751 L38.6900549,25.2633457 L23.3171981,25.2633457 L31.0036265,13.446751 Z M31.0036265,56.3147471 L22.6915065,27.7047485 L39.3157465,27.7047485 L31.0036265,56.3147471 Z M40.9321064,24.2581197 L33.2456781,12.4415249 L48.618777,12.4415249 L40.9321064,24.2581197 Z M43.174158,25.2633457 L50.8607075,13.446751 L58.5470148,25.2633457 L43.174158,25.2633457 Z" id="Shape" fill="#5B3BE8"></path>
                        <path d="M18.8020846,39.8020846 C15.7119923,39.8020846 13.1979154,37.2880077 13.1979154,34.1979154 C13.1979154,33.5363604 12.661555,33 12,33 C11.338445,33 10.8020846,33.5363604 10.8020846,34.1979154 C10.8020846,37.2880077 8.28800767,39.8020846 5.19791542,39.8020846 C4.53648017,39.8020846 4,40.338445 4,41 C4,41.661555 4.53648017,42.1979154 5.19791542,42.1979154 C8.28800767,42.1979154 10.8020846,44.7119923 10.8020846,47.8020846 C10.8020846,48.4636396 11.3385648,49 12,49 C12.6614352,49 13.1979154,48.4636396 13.1979154,47.8020846 C13.1979154,44.7119923 15.7119923,42.1979154 18.8020846,42.1979154 C19.4636396,42.1979154 20,41.661555 20,41 C20,40.338445 19.4636396,39.8020846 18.8020846,39.8020846 Z M12,43.5950641 C11.346951,42.5429496 10.4570504,41.6531688 9.40505571,41 C10.4570504,40.346951 11.3468312,39.4571702 12,38.4049359 C12.653049,39.4570504 13.5429496,40.3468312 14.5949443,41 C13.5429496,41.6531688 12.6531688,42.5428298 12,43.5950641 Z" id="Shape" fill="#5B3BE8"></path>
                        <path d="M60.7,5.2 C58.549585,5.2 56.8,3.45041504 56.8,1.3 C56.8,0.582068207 56.2178018,0 55.5,0 C54.7821982,0 54.2,0.582068207 54.2,1.3 C54.2,3.45041504 52.450415,5.2 50.3,5.2 C49.5821982,5.2 49,5.78206821 49,6.5 C49,7.21793179 49.5821982,7.8 50.3,7.8 C52.450415,7.8 54.2,9.54958496 54.2,11.7 C54.2,12.4179318 54.7821982,13 55.5,13 C56.2178018,13 56.8,12.4179318 56.8,11.7 C56.8,9.54958496 58.549585,7.8 60.7,7.8 C61.4178018,7.8 62,7.21793179 62,6.5 C62,5.78206821 61.4178018,5.2 60.7,5.2 Z M55.5,7.8040304 C55.1290729,7.31024102 54.689759,6.87092709 54.1959696,6.5 C54.689759,6.12907291 55.1290729,5.68975898 55.5,5.1959696 C55.8709271,5.68975898 56.310241,6.12907291 56.8040304,6.5 C56.310241,6.87079708 55.8707971,7.31024102 55.5,7.8040304 Z" id="Shape" fill="#5B3BE8"></path>
                        <path d="M47.7068707,40.2930293 C47.5209521,40.1060106 47.2629263,40 47,40 C46.7368737,40 46.480048,40.1060106 46.2930293,40.2930293 C46.1070107,40.4790479 46,40.7370737 46,41 C46,41.2629263 46.1069107,41.5209521 46.2930293,41.7069707 C46.4790479,41.8929893 46.7368737,42 47,42 C47.2630263,42 47.5209521,41.8929893 47.7068707,41.7069707 C47.8928893,41.5209521 48,41.2629263 48,41 C48,40.7370737 47.8929893,40.4790479 47.7068707,40.2930293 Z" id="Path" fill="#000000"></path>
                    </g>
                </g>
            </g>
        </g>
    </g>
</svg>