<?xml version="1.0" encoding="utf-8"?>
<!-- Generator: Adobe Illustrator 16.0.0, SVG Export Plug-In . SVG Version: 6.00 Build 0)  -->
<!DOCTYPE svg PUBLIC "-//W3C//DTD SVG 1.1//EN" "http://www.w3.org/Graphics/SVG/1.1/DTD/svg11.dtd">
<svg version="1.1" id="Layer_1" xmlns="http://www.w3.org/2000/svg" xmlns:xlink="http://www.w3.org/1999/xlink" x="0px" y="0px"
	 width="778.954px" height="155.246px" viewBox="0 0 778.954 155.246" enable-background="new 0 0 778.954 155.246"
	 xml:space="preserve">
<g>
	<g>
		<path fill="#F19220" d="M148.179,7.634C139.97,2.456,130.648,0,120.942,0c-11.331,0-23.188,3.358-34.395,9.613
			C75.337,3.358,63.485,0,52.155,0c-9.706,0-19.026,2.456-27.238,7.634C-4.424,26.15-8.425,72.5,15.966,111.148
			c17.573,27.84,45.083,44.098,70.058,44.098c0.177,0,0.35-0.018,0.523-0.018c0.175,0,0.348,0.018,0.52,0.018
			c24.979,0,52.489-16.258,70.057-44.098C181.524,72.5,177.516,26.15,148.179,7.634z M138.174,95.982
			c-0.106-15.188-4.408-31.571-13.07-47c15.136,3.423,28.736,8.836,39.99,15.738c-0.554,7.222-2.104,14.549-4.609,21.771
			C153.724,90.191,146.238,93.381,138.174,95.982z M109.122,141.049c-6.627,4.182-14.225,6.335-22.574,6.422
			c-8.35-0.087-15.947-2.24-22.576-6.422c-11.307-7.138-18.574-19.513-20.676-35.056c13.836,3.565,28.735,5.446,44.083,5.446
			c14.713,0,29.007-1.729,42.348-5.017C127.549,121.768,120.324,133.979,109.122,141.049z M87.379,103.68
			c-15.898,0-31.004-2.104-44.676-5.869c-0.307-16.465,4.833-33.876,14.737-49.57c0.206-0.319,0.414-0.632,0.62-0.945
			c9.34-1.594,19.169-2.451,29.319-2.451c9.485,0,18.682,0.764,27.476,2.164c0.262,0.41,0.532,0.815,0.795,1.232
			c10,15.843,15.146,33.437,14.74,50.035C117.157,101.755,102.625,103.68,87.379,103.68z M12.231,85.354
			c-2.167-6.521-3.573-13.122-4.157-19.646c11.09-7.081,24.588-12.691,39.682-16.305c-8.402,15.126-12.622,31.139-12.824,46.038
			C26.693,92.672,19.061,89.282,12.231,85.354z M64.437,38.513C70.95,30.5,78.501,23.767,86.548,18.668
			c7.977,5.058,15.458,11.715,21.937,19.633c-6.897-0.796-13.954-1.217-21.106-1.217C79.59,37.084,71.916,37.577,64.437,38.513z
			 M120.942,7.76c8.562,0,16.327,2.169,23.094,6.436c12.09,7.631,19.56,21.239,21.037,38.314c0.096,1.122,0.165,2.256,0.211,3.389
			c-13.38-7.539-29.005-12.955-45.861-15.986c-7.245-10.398-15.903-19.003-25.234-25.518C102.958,10.114,112.087,7.76,120.942,7.76z
			 M29.061,14.195C35.828,9.929,43.598,7.76,52.155,7.76c8.851,0,17.987,2.354,26.754,6.635
			c-9.442,6.588-18.188,15.311-25.479,25.863C36.592,43.485,21.044,49.12,7.797,56.875c0.038-1.462,0.098-2.921,0.228-4.365
			C9.5,35.435,16.97,21.826,29.061,14.195z M22.527,107.008c-2.189-3.471-4.131-7.023-5.856-10.637
			c5.865,2.812,12.072,5.257,18.563,7.306c0.907,10.029,3.754,19.319,8.458,27.203C35.692,124.443,28.43,116.357,22.527,107.008z
			 M129.406,130.883c4.617-7.742,7.435-16.838,8.391-26.656c6.327-1.918,12.393-4.209,18.138-6.84
			c-1.597,3.262-3.386,6.477-5.369,9.625C144.667,116.357,137.401,124.443,129.406,130.883z"/>
	</g>
	<g>
		<g>
			<path fill="#F19220" d="M253.47,49.994v5.702c-4.266-4.315-9.385-6.496-15.266-6.496c-7.413,0-13.928,2.649-19.372,7.872
				c-5.459,5.249-8.229,12.32-8.229,21.017c0,8.681,2.693,15.808,7.989,21.175c5.308,5.381,11.642,8.114,18.817,8.114
				c3.586,0,7.199-0.89,10.719-2.636c1.965-0.969,3.751-2.188,5.341-3.645v5.478h14.91V49.994H253.47z M253.667,78.482
				c0,4.56-1.327,8.172-4.043,11.045c-2.697,2.839-5.878,4.221-9.725,4.221c-3.89,0-7.187-1.378-10.082-4.216
				c-2.883-2.832-4.288-6.427-4.288-10.998c0-4.6,1.387-8.311,4.241-11.345c2.821-2.998,6.099-4.457,10.024-4.457
				c3.901,0,7.106,1.447,9.795,4.432C252.335,70.202,253.667,73.909,253.667,78.482z"/>
			<path fill="#F19220" d="M316.26,49.994l0.004,25.558c-0.354,4.314-1.462,7.524-3.287,9.548c-1.726,1.926-4.641,2.896-8.656,2.896
				c-3.933,0-6.688-1.025-8.186-3.055c-1.633-2.203-2.462-6.211-2.462-11.907V50.095h-14.911v27.898
				c0,15.976,7.758,24.422,22.434,24.422c5.801,0,10.841-1.539,15.056-4.586c-0.285,14.192-7.394,15.858-12.77,15.858
				c-6.527,0-10.814-2.943-13.101-8.99l-0.702-1.852l-13.534,5.758l0.658,1.713c2.117,5.522,5.6,9.838,10.339,12.832
				c4.684,2.957,10.184,4.459,16.34,4.459c8.103,0,14.818-2.66,19.961-7.912c5.132-5.243,7.735-12.801,7.735-22.453V49.994H316.26z"
				/>
			<path fill="#F19220" d="M382.126,49.994v5.695c-4.259-4.312-9.372-6.489-15.258-6.489c-7.416,0-13.927,2.649-19.365,7.871
				c-5.464,5.247-8.231,12.315-8.231,21.018c0,8.681,2.694,15.802,7.991,21.175c5.309,5.381,11.632,8.114,18.811,8.114
				c3.593,0,7.196-0.885,10.727-2.636c1.958-0.969,3.735-2.188,5.326-3.637v5.47h14.922V49.994H382.126z M382.327,78.482
				c0,4.564-1.323,8.176-4.035,11.045c-2.696,2.839-5.878,4.221-9.729,4.221c-3.88,0-7.177-1.382-10.084-4.216
				c-2.883-2.837-4.291-6.435-4.291-10.998c0-4.593,1.39-8.307,4.247-11.342c2.824-3.001,6.1-4.46,10.025-4.46
				c3.9,0,7.105,1.447,9.796,4.432C380.996,70.202,382.327,73.907,382.327,78.482z"/>
		</g>
		<path fill="#F19220" d="M421.917,76.009v30.687h-11.934V50.013h11.934v10.336c1.703-3.482,4.281-6.216,7.723-8.205
			c3.451-1.985,7.158-2.984,11.133-2.984c8.957,0,15.029,3.695,18.227,11.082c5.607-7.387,12.604-11.082,20.988-11.082
			c6.391,0,11.562,1.953,15.502,5.86c3.939,3.91,5.916,9.556,5.916,16.943v34.732h-11.936v-31.11
			c0-10.444-4.334-15.663-12.998-15.663c-4.055,0-7.582,1.297-10.6,3.889c-3.025,2.594-4.6,6.375-4.742,11.345v31.539h-11.938
			V75.586c0-5.399-0.957-9.356-2.875-11.882c-1.914-2.52-4.936-3.781-9.059-3.781c-4.117,0-7.709,1.369-10.762,4.101
			C423.442,66.76,421.917,70.752,421.917,76.009z"/>
		<path fill="#F19220" d="M556.594,80.7V50.013h11.93v56.682h-11.93V96.359c-1.914,3.482-4.57,6.217-7.938,8.205
			c-3.373,1.992-7.018,2.98-10.926,2.98c-6.393,0-11.553-1.949-15.504-5.859c-3.939-3.903-5.906-9.551-5.906-16.938V50.013h11.928
			v31.113c0,10.44,4.334,15.663,12.996,15.663c4.121,0,7.711-1.366,10.764-4.104C555.063,89.951,556.594,85.956,556.594,80.7z"/>
		<path fill="#F19220" d="M596.653,76.009v30.687h-11.934V50.013h11.934v10.336c1.92-3.482,4.564-6.216,7.938-8.205
			c3.375-1.985,7.01-2.984,10.918-2.984c6.396,0,11.564,1.953,15.506,5.86c3.943,3.91,5.912,9.556,5.912,16.943v34.732h-11.934
			v-31.11c0-10.444-4.332-15.663-12.996-15.663c-4.119,0-7.711,1.369-10.764,4.101C598.178,66.76,596.653,70.752,596.653,76.009z"/>
		<path fill="#F19220" d="M656.854,99.45c-5.33-5.396-7.996-12.502-7.996-21.308c0-8.81,2.732-15.841,8.201-21.098
			c5.471-5.254,11.992-7.887,19.557-7.887c7.562,0,13.648,3.195,18.277,9.594V27.636h11.928v79.06h-11.928v-8.522
			c-4.408,6.247-10.84,9.374-19.289,9.374C668.426,107.546,662.174,104.846,656.854,99.45z M660.793,78.621
			c0,5.432,1.736,9.854,5.229,13.27c3.475,3.406,7.557,5.11,12.24,5.11c4.695,0,8.67-1.722,11.939-5.172
			c3.26-3.442,4.896-7.864,4.896-13.261c0-5.401-1.637-9.911-4.896-13.531c-3.271-3.626-7.285-5.434-12.041-5.434
			c-4.764,0-8.846,1.808-12.256,5.434C662.495,68.657,660.793,73.188,660.793,78.621z"/>
		<path fill="#F19220" d="M770.43,99.077c-5.686,5.647-12.781,8.469-21.309,8.469c-8.525,0-15.631-2.819-21.314-8.469
			c-5.68-5.647-8.518-12.552-8.518-20.724c0-8.168,2.838-15.075,8.518-20.723c5.686-5.646,12.789-8.473,21.314-8.473
			s15.623,2.826,21.309,8.473c5.678,5.647,8.523,12.554,8.523,20.723C778.954,86.525,776.108,93.43,770.43,99.077z M736.28,91.725
			c3.373,3.445,7.652,5.168,12.842,5.168c5.18,0,9.465-1.723,12.836-5.168c3.371-3.441,5.059-7.901,5.059-13.371
			c0-5.464-1.688-9.928-5.059-13.37c-3.371-3.446-7.656-5.169-12.836-5.169c-5.188,0-9.469,1.723-12.842,5.169
			c-3.373,3.442-5.062,7.905-5.062,13.37C731.217,83.822,732.907,88.282,736.28,91.725z"/>
	</g>
</g>
</svg>
